<svg xmlns="http://www.w3.org/2000/svg" xmlns:xlink="http://www.w3.org/1999/xlink" width="500" zoomAndPan="magnify" viewBox="0 0 375 374.999991" height="500" preserveAspectRatio="xMidYMid meet" version="1.0"><defs><clipPath id="75ee80b732"><path d="M 207 72 L 356 72 L 356 220 L 207 220 Z M 207 72 " clip-rule="nonzero"/></clipPath><clipPath id="375f8abe83"><path d="M 308.078125 219.644531 L 207.71875 119.28125 L 254.996094 72.003906 L 355.355469 172.367188 Z M 308.078125 219.644531 " clip-rule="nonzero"/></clipPath><clipPath id="bc7f542adc"><path d="M 0.601562 0 L 148.441406 0 L 148.441406 147.839844 L 0.601562 147.839844 Z M 0.601562 0 " clip-rule="nonzero"/></clipPath><clipPath id="4a92645ce5"><path d="M 101.078125 147.644531 L 0.71875 47.28125 L 47.996094 0.00390625 L 148.355469 100.367188 Z M 101.078125 147.644531 " clip-rule="nonzero"/></clipPath><clipPath id="0535799619"><rect x="0" width="149" y="0" height="148"/></clipPath><clipPath id="15bbdee277"><path d="M 0 0 L 237 0 L 237 237 L 0 237 Z M 0 0 " clip-rule="nonzero"/></clipPath><clipPath id="0161ad0fe5"><path d="M 0 187.214844 L 187.21875 -0.00390625 L 236.945312 49.722656 L 49.726562 236.941406 Z M 0 187.214844 " clip-rule="nonzero"/></clipPath><clipPath id="ab5ad6126b"><path d="M 0 0 L 237 0 L 237 237 L 0 237 Z M 0 0 " clip-rule="nonzero"/></clipPath><clipPath id="2cd641d11b"><path d="M 0 187.214844 L 187.21875 -0.00390625 L 236.945312 49.722656 L 49.726562 236.941406 Z M 0 187.214844 " clip-rule="nonzero"/></clipPath><clipPath id="1c8bf2fadf"><rect x="0" width="237" y="0" height="237"/></clipPath><clipPath id="e8c10a6be3"><path d="M 137 138 L 372.71875 138 L 372.71875 374 L 137 374 Z M 137 138 " clip-rule="nonzero"/></clipPath><clipPath id="35730fde28"><path d="M 137.261719 322.335938 L 321.546875 138.050781 L 372.570312 189.070312 L 188.285156 373.355469 Z M 137.261719 322.335938 " clip-rule="nonzero"/></clipPath><clipPath id="144de7862f"><path d="M 0.0390625 0 L 235.71875 0 L 235.71875 235.441406 L 0.0390625 235.441406 Z M 0.0390625 0 " clip-rule="nonzero"/></clipPath><clipPath id="ec3b60aa7f"><path d="M 0.261719 184.335938 L 184.546875 0.0507812 L 235.570312 51.070312 L 51.285156 235.355469 Z M 0.261719 184.335938 " clip-rule="nonzero"/></clipPath><clipPath id="fa325db86f"><rect x="0" width="236" y="0" height="236"/></clipPath><clipPath id="dac090bc47"><path d="M 0 138 L 237 138 L 237 375 L 0 375 Z M 0 138 " clip-rule="nonzero"/></clipPath><clipPath id="2cccecd694"><path d="M 187.214844 374.992188 L 0 187.773438 L 49.726562 138.046875 L 236.945312 325.261719 Z M 187.214844 374.992188 " clip-rule="nonzero"/></clipPath><clipPath id="65c62f0c63"><path d="M 0 0 L 237 0 L 237 237 L 0 237 Z M 0 0 " clip-rule="nonzero"/></clipPath><clipPath id="ac1c5604e5"><path d="M 187.214844 236.992188 L 0 49.773438 L 49.726562 0.046875 L 236.945312 187.261719 Z M 187.214844 236.992188 " clip-rule="nonzero"/></clipPath><clipPath id="84403286b5"><rect x="0" width="237" y="0" height="237"/></clipPath><clipPath id="17b1354691"><path d="M 137 101 L 274 101 L 274 237 L 137 237 Z M 137 101 " clip-rule="nonzero"/></clipPath><clipPath id="e5bdad9431"><path d="M 137.449219 189.664062 L 225.730469 101.382812 L 273.007812 148.664062 L 184.730469 236.945312 Z M 137.449219 189.664062 " clip-rule="nonzero"/></clipPath><clipPath id="4cdfa5b8e3"><path d="M 0.28125 0.28125 L 136.121094 0.28125 L 136.121094 136 L 0.28125 136 Z M 0.28125 0.28125 " clip-rule="nonzero"/></clipPath><clipPath id="165726c0fc"><path d="M 0.449219 88.664062 L 88.730469 0.382812 L 136.007812 47.664062 L 47.730469 135.945312 Z M 0.449219 88.664062 " clip-rule="nonzero"/></clipPath><clipPath id="5fb53e5a28"><rect x="0" width="137" y="0" height="136"/></clipPath><clipPath id="0d3bcd80eb"><rect x="0" width="373" y="0" height="375"/></clipPath></defs><g transform="matrix(1, 0, 0, 1, 0, 0)"><g clip-path="url(#0d3bcd80eb)"><g clip-path="url(#75ee80b732)"><g clip-path="url(#375f8abe83)"><g transform="matrix(1, 0, 0, 1, 207, 72)"><g clip-path="url(#0535799619)"><g clip-path="url(#bc7f542adc)"><g clip-path="url(#4a92645ce5)"><path fill="#004c8b" d="M 101.078125 147.644531 L 0.796875 47.363281 L 48.074219 0.0820312 L 148.355469 100.367188 Z M 101.078125 147.644531 " fill-opacity="1" fill-rule="nonzero"/></g></g></g></g></g></g><g clip-path="url(#15bbdee277)"><g clip-path="url(#0161ad0fe5)"><g transform="matrix(1, 0, 0, 1, 0, 0)"><g clip-path="url(#1c8bf2fadf)"><g clip-path="url(#ab5ad6126b)"><g clip-path="url(#2cd641d11b)"><path fill="#004c8b" d="M 0 187.214844 L 187.25 -0.0351562 L 236.976562 49.691406 L 49.726562 236.941406 Z M 0 187.214844 " fill-opacity="1" fill-rule="nonzero"/></g></g></g></g></g></g><g clip-path="url(#e8c10a6be3)"><g clip-path="url(#35730fde28)"><g transform="matrix(1, 0, 0, 1, 137, 138)"><g clip-path="url(#fa325db86f)"><g clip-path="url(#144de7862f)"><g clip-path="url(#ec3b60aa7f)"><path fill="#004c8b" d="M 0.261719 184.335938 L 184.621094 -0.0234375 L 235.644531 51 L 51.285156 235.355469 Z M 0.261719 184.335938 " fill-opacity="1" fill-rule="nonzero"/></g></g></g></g></g></g><g clip-path="url(#dac090bc47)"><g clip-path="url(#2cccecd694)"><g transform="matrix(1, 0, 0, 1, 0, 138)"><g clip-path="url(#84403286b5)"><g clip-path="url(#65c62f0c63)"><g clip-path="url(#ac1c5604e5)"><path fill="#004c8b" d="M 187.214844 236.992188 L -0.0429688 49.730469 L 49.683594 0.00390625 L 236.945312 187.261719 Z M 187.214844 236.992188 " fill-opacity="1" fill-rule="nonzero"/></g></g></g></g></g></g><g clip-path="url(#17b1354691)"><g clip-path="url(#e5bdad9431)"><g transform="matrix(1, 0, 0, 1, 137, 101)"><g clip-path="url(#5fb53e5a28)"><g clip-path="url(#4cdfa5b8e3)"><g clip-path="url(#165726c0fc)"><path fill="#004c8b" d="M 0.449219 88.664062 L 88.726562 0.386719 L 136.007812 47.664062 L 47.730469 135.945312 Z M 0.449219 88.664062 " fill-opacity="1" fill-rule="nonzero"/></g></g></g></g></g></g></g></g></svg>